<?xml version="1.0" encoding="utf-8"?>
<!-- Generator: Adobe Illustrator 21.1.0, SVG Export Plug-In . SVG Version: 6.00 Build 0)  -->
<svg version="1.1" id="Layer_1" xmlns="http://www.w3.org/2000/svg" xmlns:xlink="http://www.w3.org/1999/xlink" x="0px" y="0px"
	 viewBox="0 0 1504 64.4" style="enable-background:new 0 0 1504 64.4;" xml:space="preserve">
<style type="text/css">
	.st0{fill:#42210B;}
</style>
<g>
	<g>
		<path class="st0" d="M683.9,62.6c9.7,3.5,15.2-9.1,17.4-16.4c2.3-7.8,1.9-16.4,1.5-24.5c-0.2-3.5-1.2-7-1-10.5
			c0.3-7.4,7.7-10.7,12.8-5.1c5.5,6,7.1,15,6,22.9c-0.5,3.6-1.6,8.4-4.8,10.6c-4.8,3.3-8.2-1.4-8.7-5.8c-0.1-1.4-0.9-7.3,1.9-7.1
			c3,0.2,1.9,10.5,1.7,12.6c-0.5,6.5-1.9,14.1,1.4,20.2c2.4,4.3,7.8,6.6,12,3.4c4-3.1,4.7-9.3,4.8-13.9c0-1.9-3-1.9-3,0
			c-0.1,3.3-0.3,8.4-2.9,10.9c-5.5,5.3-9.5-3.1-9.9-7.7c-0.5-5.2,0.5-10.4,0.7-15.5c0.1-3.4,0.4-8.5-1.8-11.5
			c-2.7-3.7-7-0.7-7.9,2.9c-1.2,4.6-0.1,11.6,4.1,14.3c4.3,2.9,9.4,0.7,12-3.3c3.9-6.2,4.3-14.8,2.9-21.8c-1.2-6-4.7-14.1-10.8-16.5
			c-6.3-2.5-12.1,1.6-13.3,7.8c-0.9,4.7,0.6,9.4,0.7,14c0.2,6.4,0.6,13-0.6,19.4c-1.2,6.3-5.8,20.8-14.5,17.7
			C682.8,59,682,61.9,683.9,62.6L683.9,62.6z"/>
	</g>
</g>
<g>
	<g>
		<path class="st0" d="M745.4,37.1c-11.2-3.6-15.6,17.4-9.5,23.8c5.2,5.5,12.5,1.2,15.6-4.3c3.5-6.3,4.6-15-0.2-20.8
			c-1-1.2-2.8,0.1-2.5,1.5c1,4.8,6,7.7,10.7,6.6c2.8-0.6,5.1-2.6,7.4-4.1c3.1-2,6-4.8,9.2,0.4c0.6,1,0.9,2.6,1.4,3.8
			c0.6,1.5,2.7,0.6,2.8-0.8c0.3-7.1-6.2-10.5-11.7-5.7c-4.4,3.8-11.9,15.4-8,21.2c3.3,5,12.1,3.4,15.4-0.5
			c3.9-4.6,4.1-11.5,4.2-17.2c-0.8,0.4-1.5,0.9-2.3,1.3c6.8,4.8,15.7-0.6,18.4-7.7c2-5.3,0.6-19.8,7-22c-0.6-0.2-1.1-0.5-1.7-0.7
			c2.2,3.5-0.7,9.3-2.1,12.6c-1.5,3.6-3.5,7-5.1,10.6c-2.7,6.1-4.8,14.2-2.8,20.8c1.8,6,8,9.6,13.3,5.4c7.1-5.7,8.3-16.2,10.6-24.3
			c-0.8,0.2-1.7,0.4-2.5,0.7c0.8-0.2,1.7-0.4,2.5-0.7c-0.8,0.2-1.7,0.4-2.5,0.7c2.5,2.9,5,5.5,6.4,9c2,4.9,4.4,13.3-3.6,13.2
			c-1.9,0-1.9,3,0,3c6.1,0.1,9.2-3.6,8.4-9.6c-0.9-7.5-4.4-12.3-9.1-17.8c-0.7-0.8-2.4-0.4-2.5,0.7c-0.8,5.6,6.1,3.3,2.5-0.7
			c-0.8-0.9-2.2-0.4-2.5,0.7c-2.2,7.5-3.2,17.7-9.7,22.9c-3.7,2.9-7.4-0.5-8.5-4.4c-1-3.7-0.4-7.8,0.5-11.5
			c1.5-6.2,4.8-11.5,7.3-17.3c1.9-4.4,4.9-10.9,2-15.5c-0.3-0.5-1.1-0.9-1.7-0.7c-5.3,1.9-6.2,8.4-7,13.3c-0.5,3.2-0.7,6.6-1.7,9.7
			c-1.7,5.7-8.7,11.1-14.4,7.1c-1-0.7-2.2,0.2-2.3,1.3c-0.2,6.4-0.6,18.4-9.6,17.8c-2.1-0.1-4.6-0.5-5-3.3c-0.4-2.7,1.8-6.4,3-8.7
			c1.2-2.1,2.5-4.6,4.3-6.3c3.3-3.2,7.7-2.8,7.5,2.7c0.9-0.3,1.9-0.5,2.8-0.8c-1.7-3.9-2.7-9.1-8.3-8.4c-5.4,0.8-17.7,13.9-20.1,2.4
			c-0.8,0.5-1.7,1-2.5,1.5c3.3,4.1,2.6,10,0.9,14.6c-1,2.6-2.7,5.7-5.2,7.1c-3.9,2-7.8-0.5-8.5-4.6c-0.8-4.7,1.5-17.3,8.3-15.1
			C746.5,40.6,747.3,37.7,745.4,37.1L745.4,37.1z"/>
	</g>
</g>
<g>
	<g>
		<path class="st0" d="M787.9,35.4c5.6,0.1,11.1,1.7,16.7,1.3c1.9-0.1,1.9-3.1,0-3c-5.6,0.4-11.1-1.1-16.7-1.3
			C786,32.4,786,35.4,787.9,35.4L787.9,35.4z"/>
	</g>
</g>
</svg>
